<?xml version="1.0" standalone="no"?><!DOCTYPE svg PUBLIC "-//W3C//DTD SVG 1.1//EN" "http://www.w3.org/Graphics/SVG/1.1/DTD/svg11.dtd"><svg t="1698976359415" class="icon" viewBox="0 0 1024 1024" version="1.1" xmlns="http://www.w3.org/2000/svg" p-id="9986" xmlns:xlink="http://www.w3.org/1999/xlink" width="128" height="128"><path d="M768 640h42.688v42.688H768zM725.312 682.688H768v42.688h-42.688zM768 682.688h42.688v42.688H768zM810.688 640h42.688v42.688h-42.688zM810.688 682.688h42.688v42.688h-42.688z" fill="#8B422B" p-id="9987"></path><path d="M853.312 640H896v42.688h-42.688zM896 640h42.688v42.688H896zM938.688 640h42.688v42.688h-42.688zM853.312 682.688H896v42.688h-42.688zM896 682.688h42.688v42.688H896zM938.688 682.688h42.688v42.688h-42.688zM42.688 640h42.688v42.688H42.688z" fill="#8B422B" p-id="9988"></path><path d="M85.312 640H128v42.688h-42.688zM128 640h42.688v42.688H128zM170.688 640h42.688v42.688h-42.688z" fill="#8B422B" p-id="9989"></path><path d="M213.312 640H256v42.688h-42.688zM256 640h42.688v42.688H256zM42.688 682.688h42.688v42.688H42.688z" fill="#8B422B" p-id="9990"></path><path d="M85.312 682.688H128v42.688h-42.688zM128 682.688h42.688v42.688H128zM170.688 682.688h42.688v42.688h-42.688z" fill="#8B422B" p-id="9991"></path><path d="M213.312 682.688H256v42.688h-42.688zM256 682.688h42.688v42.688H256zM298.688 682.688h42.688v42.688h-42.688z" fill="#8B422B" p-id="9992"></path><path d="M725.312 768H768v42.688h-42.688zM768 768h42.688v42.688H768zM768 810.688h42.688v42.688H768zM810.688 768h42.688v42.688h-42.688zM810.688 810.688h42.688v42.688h-42.688z" fill="#6EBA3D" p-id="9993"></path><path d="M853.312 768H896v42.688h-42.688zM597.312 810.688H640v42.688h-42.688zM682.688 853.312h42.688V896h-42.688z" fill="#6EBA3D" p-id="9994"></path><path d="M682.688 810.688h42.688v42.688h-42.688z" fill="#6EBA3D" p-id="9995"></path><path d="M725.312 853.312H768V896h-42.688zM682.688 768h42.688v42.688h-42.688z" fill="#6EBA3D" p-id="9996"></path><path d="M725.312 810.688H768v42.688h-42.688zM640 768h42.688v42.688H640zM640 810.688h42.688v42.688H640z" fill="#6EBA3D" p-id="9997"></path><path d="M170.688 170.688h42.688v42.688h-42.688z" fill="#F29630" p-id="9998"></path><path d="M213.312 170.688H256v42.688h-42.688zM256 170.688h42.688v42.688H256zM298.688 170.688h42.688v42.688h-42.688z" fill="#F29630" p-id="9999"></path><path d="M341.312 170.688H384v42.688h-42.688zM384 170.688h42.688v42.688H384zM426.688 170.688h42.688v42.688h-42.688z" fill="#F29630" p-id="10000"></path><path d="M469.312 170.688H512v42.688h-42.688zM128 213.312h42.688V256H128zM170.688 213.312h42.688V256h-42.688z" fill="#F29630" p-id="10001"></path><path d="M213.312 213.312H256V256h-42.688zM256 213.312h42.688V256H256zM298.688 213.312h42.688V256h-42.688z" fill="#F29630" p-id="10002"></path><path d="M341.312 213.312H384V256h-42.688zM384 213.312h42.688V256H384zM426.688 213.312h42.688V256h-42.688z" fill="#F29630" p-id="10003"></path><path d="M469.312 213.312H512V256h-42.688zM85.312 256H128v42.688h-42.688zM128 256h42.688v42.688H128zM170.688 256h42.688v42.688h-42.688z" fill="#F29630" p-id="10004"></path><path d="M213.312 256H256v42.688h-42.688z" fill="#F29630" p-id="10005"></path><path d="M256 256h42.688v42.688H256z" fill="#FFF100" p-id="10006"></path><path d="M298.688 256h42.688v42.688h-42.688z" fill="#F29630" p-id="10007"></path><path d="M341.312 256H384v42.688h-42.688zM384 256h42.688v42.688H384zM426.688 256h42.688v42.688h-42.688z" fill="#F29630" p-id="10008"></path><path d="M469.312 256H512v42.688h-42.688zM512 170.688h42.688v42.688H512z" fill="#F29630" p-id="10009"></path><path d="M512 213.312h42.688V256H512z" fill="#FFF100" p-id="10010"></path><path d="M512 256h42.688v42.688H512zM554.688 170.688h42.688v42.688h-42.688z" fill="#F29630" p-id="10011"></path><path d="M554.688 213.312h42.688V256h-42.688zM554.688 256h42.688v42.688h-42.688zM597.312 170.688H640v42.624h-42.688z" fill="#F29630" p-id="10012"></path><path d="M597.312 213.312H640V256h-42.688zM597.312 256H640v42.688h-42.688zM640 213.312h42.688V256H640zM640 256h42.688v42.688H640zM682.688 213.312h42.624V256h-42.624zM640 170.688h128v42.624h-128zM256 42.688h42.688v42.688H256zM298.688 42.688h42.688v42.688h-42.688z" fill="#F29630" p-id="10013"></path><path d="M341.312 42.688H384v42.688h-42.688zM384 42.688h42.688v42.688H384zM426.688 42.688h42.688v42.688h-42.688z" fill="#F29630" p-id="10014"></path><path d="M469.312 42.688H512v42.688h-42.688zM213.312 85.312H256V128h-42.688zM256 85.312h42.688V128H256zM298.688 85.312h42.688V128h-42.688z" fill="#F29630" p-id="10015"></path><path d="M341.312 85.312H384V128h-42.688zM384 85.312h42.688V128H384zM426.688 85.312h42.688V128h-42.688z" fill="#F29630" p-id="10016"></path><path d="M469.312 85.312H512V128h-42.688zM512 42.688h42.688v42.688H512z" fill="#F29630" p-id="10017"></path><path d="M512 85.312h42.688V128H512zM554.688 42.688h42.688v42.688h-42.688z" fill="#F29630" p-id="10018"></path><path d="M554.688 85.312h42.688V128h-42.688z" fill="#F29630" p-id="10019"></path><path d="M597.312 42.688H640v42.688h-42.688z" fill="#F29630" p-id="10020"></path><path d="M597.312 85.312H640V128h-42.688zM640 42.688h42.688v42.688H640z" fill="#F29630" p-id="10021"></path><path d="M640 85.312h42.688V128H640z" fill="#FFF100" p-id="10022"></path><path d="M682.688 42.688h42.688v42.688h-42.688z" fill="#F29630" p-id="10023"></path><path d="M682.688 85.312h42.688V128h-42.688z" fill="#F29630" p-id="10024"></path><path d="M725.312 42.688H768v42.688h-42.688z" fill="#F29630" p-id="10025"></path><path d="M725.312 85.312H768V128h-42.688zM768 85.312h42.688V128H768zM725.312 256H768v42.688h-42.688zM768 213.312h42.688V256H768zM768 256h42.688v42.688H768z" fill="#F29630" p-id="10026"></path><path d="M810.688 170.688h42.688v42.688h-42.688z" fill="#FFF100" p-id="10027"></path><path d="M810.688 213.312h42.688V256h-42.688zM810.688 256h42.688v42.688h-42.688z" fill="#F29630" p-id="10028"></path><path d="M853.312 213.312H896V256h-42.688zM853.312 256H896v42.688h-42.688zM896 256h42.688v42.688H896zM170.688 85.312h42.688V128h-42.688zM170.688 128h42.688v42.688h-42.688z" fill="#F29630" p-id="10029"></path><path d="M213.312 128H256v42.688h-42.688zM256 128h42.688v42.688H256zM298.688 128h42.688v42.688h-42.688z" fill="#F29630" p-id="10030"></path><path d="M341.312 128H384v42.688h-42.688z" fill="#FFF100" p-id="10031"></path><path d="M384 128h42.688v42.688H384zM426.688 128h42.688v42.688h-42.688z" fill="#F29630" p-id="10032"></path><path d="M469.312 128H512v42.688h-42.688z" fill="#F29630" p-id="10033"></path><path d="M128 170.688h42.688v42.688H128z" fill="#FFF100" p-id="10034"></path><path d="M85.312 170.688H128v42.688h-42.688z" fill="#F29630" p-id="10035"></path><path d="M85.312 213.312H128V256h-42.688z" fill="#F29630" p-id="10036"></path><path d="M42.688 213.312h42.688V256H42.688z" fill="#F29630" p-id="10037"></path><path d="M42.688 170.688h42.688v42.688H42.688zM85.312 128H128v42.688h-42.688zM128 128h42.688v42.688H128zM512 128h42.688v42.688H512zM554.688 128h42.688v42.688h-42.688z" fill="#F29630" p-id="10038"></path><path d="M597.312 128H640v42.688h-42.688zM640 128h42.688v42.688H640zM682.688 128h42.688v42.688h-42.688zM682.688 256h42.688v42.688h-42.688z" fill="#F29630" p-id="10039"></path><path d="M725.312 128H768v42.688h-42.688zM725.312 213.312H768V256h-42.688zM853.312 128H896v42.688h-42.688zM896 128h42.688v42.688H896zM896 170.688h42.688v42.688H896z" fill="#F29630" p-id="10040"></path><path d="M938.624 170.688h42.688v42.688h-42.688z" fill="#F29630" p-id="10041"></path><path d="M938.624 213.312h42.688V256h-42.688zM768 128h42.688v42.688H768zM768 170.688h42.688v42.688H768zM810.688 85.312h42.688V128h-42.688zM810.688 128h42.688v42.688h-42.688zM853.312 170.688H896v42.688h-42.688z" fill="#F29630" p-id="10042"></path><path d="M896 213.312h42.688V256H896z" fill="#F29630" p-id="10043"></path><path d="M682.688 384h42.688v42.688h-42.688zM682.688 426.688h42.688v42.688h-42.688z" fill="#E94C43" p-id="10044"></path><path d="M725.312 384H768v42.688h-42.688zM725.312 426.688H768v42.688h-42.688zM768 384h42.688v42.688H768zM768 426.688h42.688v42.688H768zM810.688 384h42.688v42.688h-42.688zM810.688 426.688h42.688v42.688h-42.688z" fill="#E94C43" p-id="10045"></path><path d="M853.312 384H896v42.688h-42.688zM853.312 426.688H896v42.688h-42.688zM896 384h42.688v42.688H896zM896 426.688h42.688v42.688H896zM938.688 384h42.688v42.688h-42.688zM42.688 384h42.688v42.688H42.688z" fill="#E94C43" p-id="10046"></path><path d="M85.312 384H128v42.688h-42.688zM128 384h42.688v42.688H128zM170.688 384h42.688v42.688h-42.688z" fill="#E94C43" p-id="10047"></path><path d="M213.312 384H256v42.688h-42.688zM256 384h42.688v42.688H256zM298.688 384h42.688v42.688h-42.688z" fill="#E94C43" p-id="10048"></path><path d="M341.312 384H384v42.688h-42.688zM384 384h42.688v42.688H384zM426.688 384h42.688v42.688h-42.688z" fill="#E94C43" p-id="10049"></path><path d="M469.312 384H512v42.688h-42.688zM85.312 426.688H128v42.688h-42.688zM128 426.688h42.688v42.688H128zM170.688 426.688h42.688v42.688h-42.688z" fill="#E94C43" p-id="10050"></path><path d="M213.312 426.688H256v42.688h-42.688zM256 426.688h42.688v42.688H256zM298.688 426.688h42.688v42.688h-42.688z" fill="#E94C43" p-id="10051"></path><path d="M341.312 426.688H384v42.688h-42.688zM384 426.688h42.688v42.688H384zM426.688 426.688h42.688v42.688h-42.688z" fill="#E94C43" p-id="10052"></path><path d="M469.312 426.688H512v42.688h-42.688zM512 384h42.688v42.688H512zM512 426.688h42.688v42.688H512zM554.688 384h42.688v42.688h-42.688zM554.688 426.688h42.688v42.688h-42.688z" fill="#E94C43" p-id="10053"></path><path d="M597.312 384H640v42.688h-42.688zM597.312 426.688H640v42.688h-42.688zM85.312 341.312H128V384h-42.688zM128 341.312h42.688V384H128zM170.688 341.312h42.688V384h-42.688z" fill="#E94C43" p-id="10054"></path><path d="M213.312 341.312H256V384h-42.688zM256 341.312h42.688V384H256zM298.688 341.312h42.688V384h-42.688z" fill="#E94C43" p-id="10055"></path><path d="M341.312 341.312H384V384h-42.688zM384 341.312h42.688V384H384zM426.688 341.312h42.688V384h-42.688z" fill="#E94C43" p-id="10056"></path><path d="M469.312 341.312H512V384h-42.688zM512 341.312h42.688V384H512zM554.688 341.312h42.688V384h-42.688z" fill="#E94C43" p-id="10057"></path><path d="M597.312 341.312H640V384h-42.688zM640 341.312h42.688V384H640zM640 384h42.688v42.688H640zM640 426.688h42.688v42.688H640zM682.688 341.312h42.688V384h-42.688z" fill="#E94C43" p-id="10058"></path><path d="M725.312 341.312H768V384h-42.688zM768 341.312h42.688V384H768zM810.688 341.312h42.688V384h-42.688z" fill="#E94C43" p-id="10059"></path><path d="M853.312 341.312H896V384h-42.688zM896 341.312h42.688V384H896z" fill="#E94C43" p-id="10060"></path><path d="M682.688 512h42.688v42.688h-42.688z" fill="#FDD556" p-id="10061"></path><path d="M725.312 512H768v42.688h-42.688zM768 512h42.688v42.688H768zM682.688 554.688h42.688v42.688h-42.688z" fill="#FDD556" p-id="10062"></path><path d="M682.688 597.312h42.688V640h-42.688z" fill="#FDD556" p-id="10063"></path><path d="M725.312 554.688H768v42.688h-42.688z" fill="#FDD556" p-id="10064"></path><path d="M725.312 597.312H768V640h-42.688zM682.688 640h42.688v42.688h-42.688zM768 554.688h42.688v42.688H768zM810.688 512h42.688v42.688h-42.688zM810.688 554.688h42.688v42.688h-42.688z" fill="#FDD556" p-id="10065"></path><path d="M853.312 512H896v42.688h-42.688zM896 512h42.688v42.688H896zM853.312 554.688H896v42.688h-42.688zM896 554.688h42.688v42.688H896zM938.688 554.688h42.688v42.688h-42.688zM213.312 512H256v42.688h-42.688zM298.688 512h42.688v42.688h-42.688zM384 512h42.688v42.688H384zM426.688 512h42.688v42.688h-42.688zM554.688 512h42.688v42.688h-42.688z" fill="#FDD556" p-id="10066"></path><path d="M597.312 512H640v42.688h-42.688zM42.688 554.688h42.688v42.688H42.688zM128 554.688h42.688v42.688H128zM213.312 554.688H256v42.688h-42.688zM298.688 554.688h42.688v42.688h-42.688zM384 554.688h42.688v42.688H384zM426.688 554.688h42.688v42.688h-42.688z" fill="#FDD556" p-id="10067"></path><path d="M298.688 597.312h42.688V640h-42.688zM426.688 597.312h42.688V640h-42.688zM512 554.688h42.688v42.688H512z" fill="#FDD556" p-id="10068"></path><path d="M512 597.312h42.688V640H512zM341.312 640H384v42.688h-42.688zM384 640h42.688v42.688H384zM426.688 640h42.688v42.688h-42.688z" fill="#FDD556" p-id="10069"></path><path d="M469.312 640H512v42.688h-42.688zM512 640h42.688v42.688H512zM597.312 554.688H640v42.688h-42.688z" fill="#FDD556" p-id="10070"></path><path d="M597.312 597.312H640V640h-42.688zM554.688 640h42.688v42.688h-42.688z" fill="#FDD556" p-id="10071"></path><path d="M597.312 640H640v42.688h-42.688zM384 682.688h42.688v42.688H384zM426.688 682.688h42.688v42.688h-42.688z" fill="#FDD556" p-id="10072"></path><path d="M469.312 682.688H512v42.688h-42.688zM512 682.688h42.688v42.688H512zM554.688 682.688h42.688v42.688h-42.688z" fill="#FDD556" p-id="10073"></path><path d="M597.312 682.688H640v42.688h-42.688zM426.688 725.312h42.688V768h-42.688z" fill="#FDD556" p-id="10074"></path><path d="M469.312 725.312H512V768h-42.688zM469.312 768H512v42.688h-42.688zM512 725.312h42.688V768H512zM512 768h42.688v42.688H512zM554.688 725.312h42.688V768h-42.688zM512 810.688h42.688v42.688H512zM554.688 768h42.688v42.688h-42.688z" fill="#FDD556" p-id="10075"></path><path d="M597.312 725.312H640V768h-42.688zM640 512h42.688v42.688H640zM640 554.688h42.688v42.688H640z" fill="#FDD556" p-id="10076"></path><path d="M640 597.312h42.688V640H640zM640 640h42.688v42.688H640zM640 682.688h42.688v42.688H640zM85.312 512H128v42.688h-42.688zM128 512h42.688v42.688H128zM170.688 512h42.688v42.688h-42.688zM256 512h42.688v42.688H256zM341.312 512H384v42.688h-42.688zM469.312 512H512v42.688h-42.688zM512 512h42.688v42.688H512zM85.312 554.688H128v42.688h-42.688zM170.688 554.688h42.688v42.688h-42.688zM256 554.688h42.688v42.688H256zM341.312 554.688H384v42.688h-42.688zM469.312 554.688H512v42.688h-42.688z" fill="#FDD556" p-id="10077"></path><path d="M341.312 597.312H384V640h-42.688zM384 597.312h42.688V640H384zM469.312 597.312H512V640h-42.688zM554.688 554.688h42.688v42.688h-42.688z" fill="#FDD556" p-id="10078"></path><path d="M554.688 597.312h42.688V640h-42.688z" fill="#FDD556" p-id="10079"></path><path d="M85.312 853.312H128V896h-42.688zM128 853.312h42.688V896H128zM554.688 853.312h42.688V896h-42.688zM42.688 896h42.688v42.688H42.688z" fill="#F29630" p-id="10080"></path><path d="M85.312 896H128v42.688h-42.688zM128 896h42.688v42.688H128zM170.688 896h42.688v42.688h-42.688z" fill="#F29630" p-id="10081"></path><path d="M213.312 896H256v42.688h-42.688zM341.312 896H384v42.688h-42.688zM384 896h42.688v42.688H384zM426.688 896h42.688v42.688h-42.688z" fill="#F29630" p-id="10082"></path><path d="M469.312 896H512v42.688h-42.688zM128 938.688h42.688v42.688H128zM170.688 938.688h42.688v42.688h-42.688z" fill="#F29630" p-id="10083"></path><path d="M213.312 938.688H256v42.688h-42.688zM256 938.688h42.688v42.688H256zM298.688 938.688h42.688v42.688h-42.688z" fill="#F29630" p-id="10084"></path><path d="M341.312 938.688H384v42.688h-42.688zM384 938.688h42.688v42.688H384zM426.688 938.688h42.688v42.688h-42.688z" fill="#F29630" p-id="10085"></path><path d="M469.312 938.688H512v42.688h-42.688zM512 896h42.688v42.688H512zM512 938.688h42.688v42.688H512zM554.688 896h42.688v42.688h-42.688zM554.688 938.688h42.688v42.688h-42.688z" fill="#F29630" p-id="10086"></path><path d="M597.312 896H640v42.688h-42.688zM597.312 938.688H640v42.688h-42.688zM682.688 938.688h42.688v42.688h-42.688z" fill="#F29630" p-id="10087"></path><path d="M725.312 938.688H768v42.688h-42.688zM768 896h42.688v42.688H768zM768 938.688h42.688v42.688H768zM810.688 896h42.688v42.688h-42.688zM810.688 938.688h42.688v42.688h-42.688zM853.312 853.312H896V896h-42.688zM896 853.312h42.688V896H896zM938.688 853.312h42.688V896h-42.688z" fill="#F29630" p-id="10088"></path><path d="M853.312 896H896v42.688h-42.688zM853.312 938.688H896v42.688h-42.688zM896 896h42.688v42.688H896zM938.688 896h42.688v42.688h-42.688zM42.688 853.312h42.688V896H42.688zM469.312 853.312H512V896h-42.688zM640 896h42.688v42.688H640zM640 938.688h42.688v42.688H640z" fill="#F29630" p-id="10089"></path><path d="M128 768h42.688v42.688H128zM384 768h42.688v42.688H384zM426.688 810.688h42.688v42.688h-42.688zM213.312 768H256v42.688h-42.688zM256 768h42.688v42.688H256zM298.688 768h42.688v42.688h-42.688zM170.688 810.688h42.688v42.688h-42.688z" fill="#6EBA3D" p-id="10090"></path><path d="M213.312 810.688H256v42.688h-42.688zM256 810.688h42.688v42.688H256zM298.688 810.688h42.688v42.688h-42.688z" fill="#6EBA3D" p-id="10091"></path><path d="M341.312 810.688H384v42.688h-42.688zM256 853.312h42.688V896H256z" fill="#6EBA3D" p-id="10092"></path><path d="M298.688 853.312h42.688V896h-42.688zM170.688 768h42.688v42.688h-42.688zM341.312 768H384v42.688h-42.688zM384 810.688h42.688v42.688H384z" fill="#6EBA3D" p-id="10093"></path><path d="M640 981.312h42.688V1024H640zM682.688 981.312h42.688V1024h-42.688z" p-id="10094"></path><path d="M725.312 981.312H768V1024h-42.688zM768 981.312h42.688V1024H768zM810.688 981.312h42.688V1024h-42.688z" p-id="10095"></path><path d="M853.312 981.312H896V1024h-42.688zM981.312 853.312H1024V896h-42.688zM981.312 896H1024v42.688h-42.688zM85.312 469.312H128V512h-42.688zM128 469.312h42.688V512H128zM170.688 469.312h42.688V512h-42.688zM256 469.312h42.688V512H256zM341.312 469.312H384V512h-42.688zM469.312 469.312H512V512h-42.688zM554.688 469.312h42.688V512h-42.688zM85.312 597.312H128V640h-42.688zM170.688 597.312h42.688V640h-42.688zM256 597.312h42.688V640H256zM213.312 725.312H256V768h-42.688zM256 725.312h42.688V768H256zM298.688 725.312h42.688V768h-42.688zM128 810.688h42.688v42.688H128zM938.624 128h42.688v42.688h-42.688zM981.312 170.688H1024v42.688h-42.688z" p-id="10096"></path><path d="M981.312 213.312H1024V256h-42.688zM0 682.688h42.688v42.688H0zM640 725.312h42.688V768H640zM810.688 42.688h42.688v42.688h-42.688zM938.688 256h42.688v42.688h-42.688zM938.688 341.312h42.688V384h-42.688zM981.312 384H1024v42.688h-42.688zM981.312 554.688H1024v42.688h-42.688zM981.312 640H1024v42.688h-42.688zM981.312 682.688H1024v42.688h-42.688zM0 853.312h42.688V896H0zM640 853.312h42.688V896H640zM0 896h42.688v42.688H0zM128 981.312h42.688V1024H128zM170.688 981.312h42.688V1024h-42.688z" p-id="10097"></path><path d="M213.312 981.312H256V1024h-42.688zM256 981.312h42.688V1024H256zM298.688 981.312h42.688V1024h-42.688z" p-id="10098"></path><path d="M341.312 981.312H384V1024h-42.688zM384 981.312h42.688V1024H384zM426.688 981.312h42.688V1024h-42.688z" p-id="10099"></path><path d="M469.312 981.312H512V1024h-42.688zM512 981.312h42.688V1024H512zM554.688 981.312h42.688V1024h-42.688z" p-id="10100"></path><path d="M597.312 981.312H640V1024h-42.688zM85.312 298.688H128v42.688h-42.688zM128 298.688h42.688v42.688H128zM170.688 298.688h42.688v42.688h-42.688z" p-id="10101"></path><path d="M213.312 298.688H256v42.688h-42.688zM256 298.688h42.688v42.688H256zM298.688 298.688h42.688v42.688h-42.688z" p-id="10102"></path><path d="M341.312 298.688H384v42.688h-42.688zM384 298.688h42.688v42.688H384zM426.688 298.688h42.688v42.688h-42.688z" p-id="10103"></path><path d="M469.312 298.688H512v42.688h-42.688zM512 298.688h42.688v42.688H512zM554.688 298.688h42.688v42.688h-42.688z" p-id="10104"></path><path d="M597.312 298.688H640v42.688h-42.688zM213.312 42.688H256v42.688h-42.688zM768 42.688h42.688v42.688H768zM682.688 298.688h42.688v42.688h-42.688z" p-id="10105"></path><path d="M725.312 298.688H768v42.688h-42.688zM768 298.688h42.688v42.688H768zM810.688 298.688h42.688v42.688h-42.688z" p-id="10106"></path><path d="M853.312 298.688H896v42.688h-42.688zM896 298.688h42.688v42.688H896zM682.688 469.312h42.688V512h-42.688z" p-id="10107"></path><path d="M725.312 469.312H768V512h-42.688zM768 469.312h42.688V512H768zM725.312 640H768v42.688h-42.688zM768 597.312h42.688V640H768zM682.688 682.688h42.688v42.688h-42.688zM42.688 725.312h42.688V768H42.688z" p-id="10108"></path><path d="M85.312 725.312H128V768h-42.688zM128 725.312h42.688V768H128zM170.688 725.312h42.688V768h-42.688zM341.312 725.312H384V768h-42.688zM384 725.312h42.688V768H384zM85.312 768H128v42.688h-42.688zM426.688 768h42.688v42.688h-42.688zM42.688 810.688h42.688v42.688H42.688zM469.312 810.688H512v42.688h-42.688zM597.312 768H640v42.688h-42.688zM554.688 810.688h42.688v42.688h-42.688zM170.688 853.312h42.688V896h-42.688z" p-id="10109"></path><path d="M213.312 853.312H256V896h-42.688zM341.312 853.312H384V896h-42.688zM384 853.312h42.688V896H384zM512 853.312h42.688V896H512zM597.312 853.312H640V896h-42.688zM256 896h42.688v42.688H256zM298.688 896h42.688v42.688h-42.688zM42.688 938.688h42.688v42.688H42.688z" p-id="10110"></path><path d="M85.312 938.688H128v42.688h-42.688zM682.688 896h42.688v42.688h-42.688zM938.688 810.688h42.688v42.688h-42.688z" p-id="10111"></path><path d="M725.312 896H768v42.688h-42.688zM896 938.688h42.688v42.688H896zM938.688 938.688h42.688v42.688h-42.688zM896 768h42.688v42.688H896zM853.312 810.688H896v42.688h-42.688zM938.688 725.312h42.688V768h-42.688zM426.688 853.312h42.688V896h-42.688zM768 853.312h42.688V896H768z" p-id="10112"></path><path d="M810.688 853.312h42.688V896h-42.688zM256 0h42.688v42.688H256zM298.688 0h42.688v42.688h-42.688z" p-id="10113"></path><path d="M341.312 0H384v42.688h-42.688zM384 0h42.688v42.688H384zM426.688 0h42.688v42.688h-42.688z" p-id="10114"></path><path d="M469.312 0H512v42.688h-42.688zM170.688 42.688h42.688v42.688h-42.688zM42.688 256h42.688v42.688H42.688zM0 213.312h42.688V256H0z" p-id="10115"></path><path d="M0 170.688h42.688v42.688H0zM42.688 128h42.688v42.688H42.688zM85.312 85.312H128V128h-42.688zM128 85.312h42.688V128H128zM42.688 341.312h42.688V384H42.688zM0 384h42.688v42.688H0zM512 0h42.688v42.688H512zM554.688 0h42.688v42.688h-42.688z" p-id="10116"></path><path d="M597.312 0H640v42.688h-42.688zM640 0h42.688v42.688H640zM640 298.688h42.688v42.688H640zM640 469.312h42.688V512H640zM0 554.688h42.688v42.688H0zM0 640h42.688v42.688H0zM682.688 0h42.688v42.688h-42.688z" p-id="10117"></path><path d="M725.312 0H768v42.688h-42.688zM853.312 85.312H896V128h-42.688zM896 85.312h42.688V128H896zM682.688 725.312h42.688V768h-42.688z" p-id="10118"></path><path d="M725.312 725.312H768V768h-42.688zM768 725.312h42.688V768H768zM810.688 469.312h42.688V512h-42.688zM810.688 597.312h42.688V640h-42.688zM810.688 725.312h42.688V768h-42.688z" p-id="10119"></path><path d="M853.312 469.312H896V512h-42.688zM896 469.312h42.688V512H896zM938.688 426.688h42.688v42.688h-42.688zM938.688 512h42.688v42.688h-42.688zM853.312 597.312H896V640h-42.688zM896 597.312h42.688V640H896zM938.688 597.312h42.688V640h-42.688zM853.312 725.312H896V768h-42.688zM896 725.312h42.688V768H896zM42.688 426.688h42.688v42.688H42.688zM213.312 469.312H256V512h-42.688zM298.688 469.312h42.688V512h-42.688zM384 469.312h42.688V512H384zM426.688 469.312h42.688V512h-42.688zM512 469.312h42.688V512H512zM42.688 512h42.688v42.688H42.688zM597.312 469.312H640V512h-42.688zM42.688 597.312h42.688V640H42.688zM128 597.312h42.688V640H128zM213.312 597.312H256V640h-42.688zM298.688 640h42.688v42.688h-42.688zM341.312 682.688H384v42.688h-42.688zM896 810.688h42.688v42.688H896zM85.312 810.688H128v42.688h-42.688z" p-id="10120"></path></svg>