<?xml version="1.0" standalone="no"?><!DOCTYPE svg PUBLIC "-//W3C//DTD SVG 1.1//EN" "http://www.w3.org/Graphics/SVG/1.1/DTD/svg11.dtd"><svg t="1698976346300" class="icon" viewBox="0 0 1024 1024" version="1.1" xmlns="http://www.w3.org/2000/svg" p-id="9716" xmlns:xlink="http://www.w3.org/1999/xlink" width="128" height="128"><path d="M384 170.688h42.688v42.688H384zM341.312 213.312H384V256h-42.688zM256 256h42.688v42.688H256zM298.688 256h42.688v42.688h-42.688zM170.688 298.688h42.688v42.688h-42.688z" fill="#B36D46" p-id="9717"></path><path d="M213.312 298.688H256v42.688h-42.688zM512 85.312h42.688V128H512zM554.688 42.688h42.688v42.688h-42.688z" fill="#B36D46" p-id="9718"></path><path d="M597.312 42.688H640v42.688h-42.688zM640 42.688h42.688v42.688H640zM682.688 42.688h42.688v42.688h-42.688z" fill="#B36D46" p-id="9719"></path><path d="M725.312 42.688H768v42.688h-42.688zM768 85.312h42.688V128H768zM896 256h42.688v42.688H896zM938.688 298.688h42.688v42.688h-42.688zM938.688 384h42.688v42.688h-42.688zM938.688 426.688h42.688v42.688h-42.688z" fill="#B36D46" p-id="9720"></path><path d="M938.688 469.312h42.688V512h-42.688zM938.688 512h42.688v42.688h-42.688zM938.688 554.688h42.688v42.688h-42.688zM85.312 384H128v42.688h-42.688zM42.688 426.688h42.688v42.688H42.688z" fill="#B36D46" p-id="9721"></path><path d="M42.688 469.312h42.688V512H42.688zM42.688 512h42.688v42.688H42.688zM42.688 554.688h42.688v42.688H42.688z" fill="#B36D46" p-id="9722"></path><path d="M42.688 597.312h42.688V640H42.688zM42.688 640h42.688v42.688H42.688zM426.688 128h42.688v42.688h-42.688z" fill="#B36D46" p-id="9723"></path><path d="M469.312 128H512v42.688h-42.688zM85.312 341.312H128V384h-42.688zM128 341.312h42.688V384H128zM853.312 128H896v42.688h-42.688z" fill="#B36D46" p-id="9724"></path><path d="M810.688 128h42.688v42.688h-42.688zM853.312 170.688H896v42.688h-42.688zM896 213.312h42.688V256H896zM938.688 341.312h42.688V384h-42.688z" fill="#B36D46" p-id="9725"></path><path d="M554.688 426.688h42.688v42.688h-42.688zM597.312 384H640v42.688h-42.688zM597.312 512H640v42.688h-42.688zM682.688 426.688h42.688v42.688h-42.688z" fill="#FFFBCB" p-id="9726"></path><path d="M682.688 469.312h42.688V512h-42.688zM597.312 426.688H640v42.688h-42.688z" fill="#FFFBCB" p-id="9727"></path><path d="M597.312 469.312H640V512h-42.688zM640 384h42.688v42.688H640zM640 426.688h42.688v42.688H640z" fill="#FFFBCB" p-id="9728"></path><path d="M640 469.312h42.688V512H640zM640 512h42.688v42.688H640zM554.688 469.312h42.688V512h-42.688z" fill="#FFFBCB" p-id="9729"></path><path d="M725.312 298.688H768v42.688h-42.688zM768 213.312h42.688V256H768zM768 256h42.688v42.688H768zM768 298.688h42.688v42.688H768zM682.688 554.688h42.688v42.688h-42.688z" fill="#FBD59C" p-id="9730"></path><path d="M682.688 597.312h42.688V640h-42.688z" fill="#FBD59C" p-id="9731"></path><path d="M725.312 597.312H768V640h-42.688zM725.312 640H768v42.688h-42.688zM768 640h42.688v42.688H768zM426.688 554.688h42.688v42.688h-42.688z" fill="#FBD59C" p-id="9732"></path><path d="M426.688 597.312h42.688V640h-42.688zM512 554.688h42.688v42.688H512zM341.312 640H384v42.688h-42.688zM384 640h42.688v42.688H384zM213.312 682.688H256v42.688h-42.688zM256 682.688h42.688v42.688H256zM298.688 682.688h42.688v42.688h-42.688zM682.688 341.312h42.688V384h-42.688z" fill="#FBD59C" p-id="9733"></path><path d="M725.312 341.312H768V384h-42.688zM512 512h42.688v42.688H512zM469.312 554.688H512v42.688h-42.688zM384 597.312h42.688V640H384z" fill="#FBD59C" p-id="9734"></path><path d="M426.688 256h42.688v42.688h-42.688z" fill="#EA5342" p-id="9735"></path><path d="M469.312 256H512v42.688h-42.688zM426.688 298.688h42.688v42.688h-42.688z" fill="#EA5342" p-id="9736"></path><path d="M469.312 298.688H512v42.688h-42.688zM512 213.312h42.688V256H512zM512 256h42.688v42.688H512zM512 298.688h42.688v42.688H512zM554.688 213.312h42.688V256h-42.688zM554.688 256h42.688v42.688h-42.688zM554.688 298.688h42.688v42.688h-42.688zM597.312 170.688H640v42.624h-42.688z" fill="#EA5342" p-id="9737"></path><path d="M597.312 213.312H640V256h-42.688zM597.312 256H640v42.688h-42.688zM597.312 298.688H640v42.688h-42.688zM640 213.312h42.688V256H640zM640 256h42.688v42.688H640zM682.688 213.312h42.624V256h-42.624zM640 170.688h42.688v42.624H640zM682.688 170.688h42.688v42.624h-42.688z" fill="#EA5342" p-id="9738"></path><path d="M725.312 170.688H768v42.624h-42.688zM682.688 298.688h42.688v42.688h-42.688zM725.312 256H768v42.688h-42.688zM810.688 298.688h42.688v42.688h-42.688zM725.312 384H768v42.688h-42.688zM725.312 512H768v42.688h-42.688zM768 384h42.688v42.688H768zM768 426.688h42.688v42.688H768z" fill="#EA5342" p-id="9739"></path><path d="M768 469.312h42.688V512H768zM768 512h42.688v42.688H768zM725.312 554.688H768v42.688h-42.688zM682.688 640h42.688v42.688h-42.688zM768 554.688h42.688v42.688H768z" fill="#EA5342" p-id="9740"></path><path d="M768 597.312h42.688V640H768zM682.688 682.688h42.688v42.688h-42.688z" fill="#EA5342" p-id="9741"></path><path d="M725.312 682.688H768v42.688h-42.688zM810.688 384h42.688v42.688h-42.688zM810.688 426.688h42.688v42.688h-42.688z" fill="#EA5342" p-id="9742"></path><path d="M810.688 469.312h42.688V512h-42.688zM810.688 512h42.688v42.688h-42.688zM810.688 554.688h42.688v42.688h-42.688z" fill="#EA5342" p-id="9743"></path><path d="M810.688 597.312h42.688V640h-42.688zM256 384h42.688v42.688H256zM298.688 384h42.688v42.688h-42.688z" fill="#EA5342" p-id="9744"></path><path d="M341.312 384H384v42.688h-42.688zM384 384h42.688v42.688H384zM426.688 384h42.688v42.688h-42.688z" fill="#EA5342" p-id="9745"></path><path d="M469.312 384H512v42.688h-42.688zM170.688 426.688h42.688v42.688h-42.688z" fill="#EA5342" p-id="9746"></path><path d="M213.312 426.688H256v42.688h-42.688zM256 426.688h42.688v42.688H256zM298.688 426.688h42.688v42.688h-42.688z" fill="#EA5342" p-id="9747"></path><path d="M341.312 426.688H384v42.688h-42.688zM384 426.688h42.688v42.688H384zM426.688 426.688h42.688v42.688h-42.688z" fill="#EA5342" p-id="9748"></path><path d="M469.312 426.688H512v42.688h-42.688zM213.312 469.312H256V512h-42.688zM298.688 469.312h42.688V512h-42.688zM384 469.312h42.688V512H384z" fill="#EA5342" p-id="9749"></path><path d="M426.688 469.312h42.688V512h-42.688zM512 384h42.688v42.688H512zM512 426.688h42.688v42.688H512z" fill="#EA5342" p-id="9750"></path><path d="M512 469.312h42.688V512H512zM213.312 512H256v42.688h-42.688zM298.688 512h42.688v42.688h-42.688zM384 512h42.688v42.688H384zM426.688 512h42.688v42.688h-42.688zM554.688 384h42.688v42.688h-42.688zM554.688 512h42.688v42.688h-42.688zM213.312 554.688H256v42.688h-42.688zM298.688 554.688h42.688v42.688h-42.688zM384 554.688h42.688v42.688H384z" fill="#EA5342" p-id="9751"></path><path d="M213.312 597.312H256V640h-42.688zM298.688 597.312h42.688V640h-42.688zM512 597.312h42.688V640H512zM170.688 640h42.688v42.688h-42.688z" fill="#EA5342" p-id="9752"></path><path d="M213.312 640H256v42.688h-42.688zM256 640h42.688v42.688H256zM298.688 640h42.688v42.688h-42.688zM426.688 640h42.688v42.688h-42.688z" fill="#EA5342" p-id="9753"></path><path d="M469.312 640H512v42.688h-42.688zM512 640h42.688v42.688H512zM597.312 554.688H640v42.688h-42.688z" fill="#EA5342" p-id="9754"></path><path d="M597.312 597.312H640V640h-42.688zM554.688 640h42.688v42.688h-42.688z" fill="#EA5342" p-id="9755"></path><path d="M597.312 640H640v42.688h-42.688zM341.312 682.688H384v42.688h-42.688zM384 682.688h42.688v42.688H384zM426.688 682.688h42.688v42.688h-42.688z" fill="#EA5342" p-id="9756"></path><path d="M469.312 682.688H512v42.688h-42.688zM512 682.688h42.688v42.688H512zM554.688 682.688h42.688v42.688h-42.688z" fill="#EA5342" p-id="9757"></path><path d="M597.312 682.688H640v42.688h-42.688zM341.312 725.312H384V768h-42.688zM384 725.312h42.688V768H384zM426.688 725.312h42.688V768h-42.688z" fill="#EA5342" p-id="9758"></path><path d="M469.312 725.312H512V768h-42.688zM426.688 768h42.688v42.688h-42.688z" fill="#EA5342" p-id="9759"></path><path d="M469.312 768H512v42.688h-42.688zM512 725.312h42.688V768H512zM512 768h42.688v42.688H512zM554.688 725.312h42.688V768h-42.688zM554.688 768h42.688v42.688h-42.688z" fill="#EA5342" p-id="9760"></path><path d="M597.312 725.312H640V768h-42.688zM341.312 341.312H384V384h-42.688zM384 341.312h42.688V384H384zM426.688 341.312h42.688V384h-42.688z" fill="#EA5342" p-id="9761"></path><path d="M469.312 341.312H512V384h-42.688zM512 341.312h42.688V384H512zM554.688 341.312h42.688V384h-42.688z" fill="#EA5342" p-id="9762"></path><path d="M597.312 341.312H640V384h-42.688zM640 298.688h42.688v42.688H640z" fill="#EA5342" p-id="9763"></path><path d="M640 341.312h42.688V384H640zM682.688 384h42.688v42.688h-42.688zM725.312 426.688H768v42.688h-42.688z" fill="#EA5342" p-id="9764"></path><path d="M725.312 469.312H768V512h-42.688zM682.688 512h42.688v42.688h-42.688zM640 554.688h42.688v42.688H640z" fill="#EA5342" p-id="9765"></path><path d="M640 597.312h42.688V640H640zM640 640h42.688v42.688H640zM682.688 256h42.688v42.688h-42.688zM725.312 213.312H768V256h-42.688zM768 341.312h42.688V384H768zM640 682.688h42.688v42.688H640z" fill="#EA5342" p-id="9766"></path><path d="M640 725.312h42.688V768H640zM810.688 341.312h42.688V384h-42.688zM170.688 469.312h42.688V512h-42.688zM256 469.312h42.688V512H256zM341.312 469.312H384V512h-42.688zM469.312 469.312H512V512h-42.688zM170.688 512h42.688v42.688h-42.688zM256 512h42.688v42.688H256zM341.312 512H384v42.688h-42.688zM469.312 512H512v42.688h-42.688zM170.688 554.688h42.688v42.688h-42.688zM256 554.688h42.688v42.688H256zM341.312 554.688H384v42.688h-42.688z" fill="#EA5342" p-id="9767"></path><path d="M170.688 597.312h42.688V640h-42.688zM256 597.312h42.688V640H256zM341.312 597.312H384V640h-42.688zM469.312 597.312H512V640h-42.688zM554.688 554.688h42.688v42.688h-42.688z" fill="#EA5342" p-id="9768"></path><path d="M554.688 597.312h42.688V640h-42.688z" fill="#EA5342" p-id="9769"></path><path d="M896 725.312h42.688V768H896zM768 768h42.688v42.688H768zM768 810.688h42.688v42.688H768zM810.688 768h42.688v42.688h-42.688zM810.688 810.688h42.688v42.688h-42.688zM896 640h42.688v42.688H896zM938.688 597.312h42.688V640h-42.688zM938.688 640h42.688v42.688h-42.688zM853.312 682.688H896v42.688h-42.688z" fill="#9D4C2A" p-id="9770"></path><path d="M896 682.688h42.688v42.688H896zM853.312 725.312H896V768h-42.688zM853.312 768H896v42.688h-42.688zM42.688 682.688h42.688v42.688H42.688z" fill="#9D4C2A" p-id="9771"></path><path d="M42.688 725.312h42.688V768H42.688z" fill="#9D4C2A" p-id="9772"></path><path d="M85.312 725.312H128V768h-42.688zM85.312 768H128v42.688h-42.688zM128 768h42.688v42.688H128zM170.688 810.688h42.688v42.688h-42.688z" fill="#9D4C2A" p-id="9773"></path><path d="M213.312 810.688H256v42.688h-42.688zM256 810.688h42.688v42.688H256zM298.688 810.688h42.688v42.688h-42.688z" fill="#9D4C2A" p-id="9774"></path><path d="M213.312 853.312H256V896h-42.688zM256 853.312h42.688V896H256zM298.688 853.312h42.688V896h-42.688z" fill="#9D4C2A" p-id="9775"></path><path d="M341.312 853.312H384V896h-42.688zM384 853.312h42.688V896H384zM597.312 853.312H640V896h-42.688zM341.312 896H384v42.688h-42.688zM384 896h42.688v42.688H384zM426.688 896h42.688v42.688h-42.688z" fill="#9D4C2A" p-id="9776"></path><path d="M469.312 896H512v42.688h-42.688zM426.688 938.688h42.688v42.688h-42.688z" fill="#9D4C2A" p-id="9777"></path><path d="M469.312 938.688H512v42.688h-42.688zM512 896h42.688v42.688H512zM512 938.688h42.688v42.688H512zM554.688 896h42.688v42.688h-42.688zM554.688 938.688h42.688v42.688h-42.688z" fill="#9D4C2A" p-id="9778"></path><path d="M597.312 896H640v42.688h-42.688zM682.688 853.312h42.688V896h-42.688z" fill="#9D4C2A" p-id="9779"></path><path d="M682.688 810.688h42.688v42.688h-42.688z" fill="#9D4C2A" p-id="9780"></path><path d="M725.312 853.312H768V896h-42.688z" fill="#9D4C2A" p-id="9781"></path><path d="M725.312 810.688H768v42.688h-42.688zM640 853.312h42.688V896H640zM640 896h42.688v42.688H640zM170.688 768h42.688v42.688h-42.688zM128 810.688h42.688v42.688H128z" fill="#9D4C2A" p-id="9782"></path><path d="M426.688 170.688h42.688v42.688h-42.688z" fill="#FFFFFF" p-id="9783"></path><path d="M469.312 170.688H512v42.688h-42.688zM384 213.312h42.688V256H384zM341.312 256H384v42.688h-42.688zM256 298.688h42.688v42.688H256zM298.688 298.688h42.688v42.688h-42.688zM554.688 85.312h42.688V128h-42.688z" fill="#FFFFFF" p-id="9784"></path><path d="M597.312 85.312H640V128h-42.688zM640 85.312h42.688V128H640zM682.688 85.312h42.688V128h-42.688z" fill="#FFFFFF" p-id="9785"></path><path d="M725.312 85.312H768V128h-42.688zM810.688 170.688h42.688v42.688h-42.688z" fill="#FFFFFF" p-id="9786"></path><path d="M853.312 213.312H896V256h-42.688zM896 298.688h42.688v42.688H896zM725.312 768H768v42.688h-42.688zM768 725.312h42.688V768H768zM810.688 682.688h42.688v42.688h-42.688z" fill="#FFFFFF" p-id="9787"></path><path d="M810.688 725.312h42.688V768h-42.688zM896 384h42.688v42.688H896zM896 426.688h42.688v42.688H896z" fill="#FFFFFF" p-id="9788"></path><path d="M896 469.312h42.688V512H896zM896 512h42.688v42.688H896zM896 554.688h42.688v42.688H896z" fill="#FFFFFF" p-id="9789"></path><path d="M896 597.312h42.688V640H896zM853.312 640H896v42.688h-42.688zM128 384h42.688v42.688H128zM85.312 426.688H128v42.688h-42.688zM85.312 640H128v42.688h-42.688zM85.312 682.688H128v42.688h-42.688zM128 725.312h42.688V768H128zM170.688 725.312h42.688V768h-42.688zM213.312 768H256v42.688h-42.688zM256 768h42.688v42.688H256zM298.688 768h42.688v42.688h-42.688zM341.312 810.688H384v42.688h-42.688zM597.312 810.688H640v42.688h-42.688zM512 853.312h42.688V896H512z" fill="#FFFFFF" p-id="9790"></path><path d="M554.688 853.312h42.688V896h-42.688zM682.688 768h42.688v42.688h-42.688zM426.688 853.312h42.688V896h-42.688z" fill="#FFFFFF" p-id="9791"></path><path d="M469.312 853.312H512V896h-42.688zM170.688 341.312h42.688V384h-42.688z" fill="#FFFFFF" p-id="9792"></path><path d="M213.312 341.312H256V384h-42.688zM512 128h42.688v42.688H512zM554.688 128h42.688v42.688h-42.688zM768 128h42.688v42.688H768zM640 810.688h42.688v42.688H640zM896 341.312h42.688V384H896zM85.312 469.312H128V512h-42.688zM85.312 512H128v42.688h-42.688zM85.312 554.688H128v42.688h-42.688z" fill="#FFFFFF" p-id="9793"></path><path d="M85.312 597.312H128V640h-42.688z" fill="#FFFFFF" p-id="9794"></path><path d="M426.688 213.312h42.688V256h-42.688z" fill="#EA5342" p-id="9795"></path><path d="M469.312 213.312H512V256h-42.688zM384 256h42.688v42.688H384zM341.312 298.688H384v42.688h-42.688zM384 298.688h42.688v42.688H384zM512 170.688h42.688v42.688H512zM554.688 170.688h42.688v42.688h-42.688zM810.688 213.312h42.688V256h-42.688zM810.688 256h42.688v42.688h-42.688z" fill="#EA5342" p-id="9796"></path><path d="M853.312 256H896v42.688h-42.688zM853.312 298.688H896v42.688h-42.688zM768 682.688h42.688v42.688H768zM682.688 725.312h42.688V768h-42.688z" fill="#EA5342" p-id="9797"></path><path d="M725.312 725.312H768V768h-42.688zM810.688 640h42.688v42.688h-42.688zM853.312 384H896v42.688h-42.688zM853.312 426.688H896v42.688h-42.688z" fill="#EA5342" p-id="9798"></path><path d="M853.312 469.312H896V512h-42.688zM853.312 512H896v42.688h-42.688zM853.312 554.688H896v42.688h-42.688z" fill="#EA5342" p-id="9799"></path><path d="M853.312 597.312H896V640h-42.688zM170.688 384h42.688v42.688h-42.688z" fill="#EA5342" p-id="9800"></path><path d="M213.312 384H256v42.688h-42.688zM128 426.688h42.688v42.688H128zM128 554.688h42.688v42.688H128z" fill="#EA5342" p-id="9801"></path><path d="M128 597.312h42.688V640H128zM128 640h42.688v42.688H128zM128 682.688h42.688v42.688H128zM170.688 682.688h42.688v42.688h-42.688zM384 768h42.688v42.688H384zM426.688 810.688h42.688v42.688h-42.688z" fill="#EA5342" p-id="9802"></path><path d="M469.312 810.688H512v42.688h-42.688zM597.312 768H640v42.688h-42.688zM554.688 810.688h42.688v42.688h-42.688zM512 810.688h42.688v42.688H512zM256 341.312h42.688V384H256zM298.688 341.312h42.688V384h-42.688zM597.312 128H640v42.688h-42.688zM640 128h42.688v42.688H640zM682.688 128h42.688v42.688h-42.688z" fill="#EA5342" p-id="9803"></path><path d="M725.312 128H768v42.688h-42.688zM768 170.688h42.688v42.688H768zM640 768h42.688v42.688H640zM853.312 341.312H896V384h-42.688zM128 469.312h42.688V512H128zM128 512h42.688v42.688H128zM213.312 725.312H256V768h-42.688zM256 725.312h42.688V768H256zM298.688 725.312h42.688V768h-42.688zM341.312 768H384v42.688h-42.688z" fill="#EA5342" p-id="9804"></path><path d="M384 810.688h42.688v42.688H384z" fill="#FFFFFF" p-id="9805"></path><path d="M341.312 170.688H384v42.688h-42.688zM256 213.312h42.688V256H256z" p-id="9806"></path><path d="M298.688 213.312h42.688V256h-42.688zM170.688 256h42.688v42.688h-42.688z" p-id="9807"></path><path d="M213.312 256H256v42.688h-42.688zM85.312 298.688H128v42.688h-42.688zM128 298.688h42.688v42.688H128zM426.688 85.312h42.688V128h-42.688z" p-id="9808"></path><path d="M469.312 85.312H512V128h-42.688zM512 42.688h42.688v42.688H512zM768 42.688h42.688v42.688H768zM938.688 682.688h42.688v42.688h-42.688zM42.688 384h42.688v42.688H42.688zM42.688 768h42.688v42.688H42.688zM128 853.312h42.688V896H128zM170.688 853.312h42.688V896h-42.688zM213.312 896H256v42.688h-42.688zM256 896h42.688v42.688H256zM298.688 896h42.688v42.688h-42.688zM341.312 938.688H384v42.688h-42.688zM384 938.688h42.688v42.688H384zM597.312 938.688H640v42.688h-42.688zM682.688 896h42.688v42.688h-42.688zM896 810.688h42.688v42.688H896z" p-id="9809"></path><path d="M725.312 896H768v42.688h-42.688zM896 768h42.688v42.688H896zM853.312 810.688H896v42.688h-42.688zM938.688 725.312h42.688V768h-42.688zM768 853.312h42.688V896H768z" p-id="9810"></path><path d="M810.688 853.312h42.688V896h-42.688zM384 128h42.688v42.688H384zM42.688 341.312h42.688V384H42.688zM0 426.688h42.688v42.688H0z" p-id="9811"></path><path d="M0 469.312h42.688V512H0zM0 512h42.688v42.688H0zM554.688 0h42.688v42.688h-42.688z" p-id="9812"></path><path d="M597.312 0H640v42.688h-42.688zM640 0h42.688v42.688H640zM0 554.688h42.688v42.688H0z" p-id="9813"></path><path d="M0 597.312h42.688V640H0zM0 640h42.688v42.688H0zM682.688 0h42.688v42.688h-42.688z" p-id="9814"></path><path d="M725.312 0H768v42.688h-42.688zM853.312 85.312H896V128h-42.688zM896 128h42.688v42.688H896zM896 170.688h42.688v42.688H896z" p-id="9815"></path><path d="M938.624 213.312h42.688V256h-42.688zM0 682.688h42.688v42.688H0z" p-id="9816"></path><path d="M0 725.312h42.688V768H0zM810.688 85.312h42.688V128h-42.688zM938.688 256h42.688v42.688h-42.688zM981.312 298.688H1024v42.688h-42.688z" p-id="9817"></path><path d="M981.312 341.312H1024V384h-42.688zM981.312 384H1024v42.688h-42.688zM981.312 426.688H1024v42.688h-42.688z" p-id="9818"></path><path d="M981.312 469.312H1024V512h-42.688zM981.312 512H1024v42.688h-42.688zM981.312 554.688H1024v42.688h-42.688z" p-id="9819"></path><path d="M981.312 597.312H1024V640h-42.688zM981.312 640H1024v42.688h-42.688zM426.688 981.312h42.688V1024h-42.688z" p-id="9820"></path><path d="M469.312 981.312H512V1024h-42.688zM512 981.312h42.688V1024H512zM554.688 981.312h42.688V1024h-42.688zM640 938.688h42.688v42.688H640zM85.312 810.688H128v42.688h-42.688z" p-id="9821"></path></svg>