<?xml version="1.0" standalone="no"?><!DOCTYPE svg PUBLIC "-//W3C//DTD SVG 1.1//EN" "http://www.w3.org/Graphics/SVG/1.1/DTD/svg11.dtd"><svg t="1692502443394" class="icon" viewBox="0 0 1024 1024" version="1.1" xmlns="http://www.w3.org/2000/svg" p-id="2755" xmlns:xlink="http://www.w3.org/1999/xlink" width="128" height="128"><path d="M587.7 511.9L912.3 187c20.9-21 20.9-54.8 0-75.8s-54.8-21-75.7 0L512 436.1 187.5 111.2c-20.9-21-54.8-21-75.7 0-20.9 21-20.9 54.8 0 75.8l324.5 324.8-324.5 324.9c-20.9 21-20.9 54.8 0 75.8 10.4 10.5 24.1 15.7 37.9 15.7 13.7 0 27.4-5.2 37.9-15.7L512 587.7l324.5 324.8c10.4 10.5 24.2 15.7 37.9 15.7s27.4-5.2 37.8-15.7c20.9-21 20.9-54.8 0-75.8L587.7 511.9z" fill="#ffffff" p-id="2756"></path></svg>