<?xml version="1.0" standalone="no"?><!DOCTYPE svg PUBLIC "-//W3C//DTD SVG 1.1//EN" "http://www.w3.org/Graphics/SVG/1.1/DTD/svg11.dtd"><svg t="1698914712283" class="icon" viewBox="0 0 1024 1024" version="1.1" xmlns="http://www.w3.org/2000/svg" p-id="7650" xmlns:xlink="http://www.w3.org/1999/xlink" width="128" height="128"><path d="M512 170.666667C174.933333 170.666667 42.666667 512 42.666667 512s132.266667 341.333333 469.333333 341.333333 469.333333-341.333333 469.333333-341.333333-132.266667-341.333333-469.333333-341.333333z m0 541.866666c-110.933333 0-200.533333-89.6-200.533333-200.533333S401.066667 311.466667 512 311.466667s200.533333 89.6 200.533333 200.533333-89.6 200.533333-200.533333 200.533333z m98.133333-200.533333c0 55.466667-42.666667 102.4-98.133333 102.4s-98.133333-42.666667-98.133333-102.4 42.666667-102.4 98.133333-102.4 98.133333 46.933333 98.133333 102.4z" p-id="7651"></path></svg>