<?xml version="1.0" standalone="no"?><!DOCTYPE svg PUBLIC "-//W3C//DTD SVG 1.1//EN" "http://www.w3.org/Graphics/SVG/1.1/DTD/svg11.dtd"><svg t="1698914799203" class="icon" viewBox="0 0 1024 1024" version="1.1" xmlns="http://www.w3.org/2000/svg" p-id="7804" xmlns:xlink="http://www.w3.org/1999/xlink" width="128" height="128"><path d="M963.2 273c0-35.3-28.6-64-64-64-35.3 0-64 28.6-64 64 0 134-145 243-323.3 243-38.2 0-74.7-5.3-108.7-14.4-5.2-2.2-10.6-3.7-16.2-4.5C270.7 460.3 188.7 373.7 188.7 273c0-35.3-28.6-64-64-64s-64 28.6-64 64c0 129.5 81.3 243.6 204 309.9l-53 53c-25 25-25 65.5 0 90.5 12.5 12.5 28.9 18.7 45.2 18.7s32.7-6.2 45.2-18.7l95-95c16.6 3.6 33.5 6.4 50.7 8.4V751c0 35.3 28.6 64 64 64 35.3 0 64-28.6 64-64V639.7c17.2-2 34-4.8 50.5-8.4l95.6 95.6c12.5 12.5 28.9 18.7 45.2 18.7s32.7-6.2 45.2-18.7c25-25 25-65.5 0-90.5L759 583c122.8-66.3 204.2-180.4 204.2-310z" fill="#808080" p-id="7805"></path></svg>