<?xml version="1.0" standalone="no"?><!DOCTYPE svg PUBLIC "-//W3C//DTD SVG 1.1//EN" "http://www.w3.org/Graphics/SVG/1.1/DTD/svg11.dtd"><svg t="1693229655603" class="icon" viewBox="0 0 1024 1024" version="1.1" xmlns="http://www.w3.org/2000/svg" p-id="4049" xmlns:xlink="http://www.w3.org/1999/xlink" width="128" height="128"><path d="M128 384h512a42.666667 42.666667 0 0 1 42.666667 42.666667v384a42.666667 42.666667 0 0 1-42.666667 42.666666H128a42.666667 42.666667 0 0 1-42.666667-42.666666v-384a42.666667 42.666667 0 0 1 42.666667-42.666667z m42.666667 85.333333v298.666667h426.666666v-298.666667H170.666667z" fill="#ffffff" p-id="4050"></path><path d="M548.992 251.008V315.733333a8.533333 8.533333 0 0 1-13.653333 6.826667L387.413333 211.626667a8.533333 8.533333 0 0 1 0-13.653334l147.925334-110.933333a8.533333 8.533333 0 0 1 13.653333 6.826667v71.808a384 384 0 0 1 383.701333 384 42.666667 42.666667 0 1 1-85.333333 0 298.666667 298.666667 0 0 0-298.368-298.666667z" fill="#ffffff" p-id="4051"></path></svg>